<?xml version="1.0" encoding="utf-8"?>
<!-- Generator: Adobe Illustrator 16.0.0, SVG Export Plug-In . SVG Version: 6.00 Build 0)  -->
<!DOCTYPE svg PUBLIC "-//W3C//DTD SVG 1.1//EN" "http://www.w3.org/Graphics/SVG/1.1/DTD/svg11.dtd">
<svg version="1.1" id="Layer_1" xmlns="http://www.w3.org/2000/svg" xmlns:xlink="http://www.w3.org/1999/xlink" x="0px" y="0px"
	 width="128px" height="128px" viewBox="0 0 128 128" enable-background="new 0 0 128 128" xml:space="preserve">
<path fill-rule="evenodd" clip-rule="evenodd" fill="#676866" d="M16.093,3.896h94.223c7.037,0,12.647,5.635,12.647,12.664v94.271
	c0,6.571-5.61,12.197-12.647,12.197H16.093c-6.556,0-12.183-5.626-12.183-12.197V16.561C3.911,9.531,9.537,3.896,16.093,3.896
	L16.093,3.896z"/>
<path fill-rule="evenodd" clip-rule="evenodd" fill="#EBEAEA" d="M63.445,16.096c26.24,0,47.336,21.104,47.336,47.367
	c0,26.258-21.096,47.833-47.336,47.833c-26.257,0-47.817-21.575-47.817-47.833C15.628,37.199,37.188,16.096,63.445,16.096
	L63.445,16.096z M63.445,23.597c22.024,0,39.835,17.825,39.835,39.866c0,22.042-17.811,39.866-39.835,39.866
	c-22.042,0-39.85-17.824-39.85-39.866C23.595,41.422,41.404,23.597,63.445,23.597L63.445,23.597z"/>
<path fill="#EBEAEA" d="M81.72,35.795l7.501,12.665l7.503,12.655l0.931,2.347l-0.931,2.341l-7.503,12.664l0,0L81.72,91.131
	l-0.931,2.341h-2.821H63.445l0,0H48.441h-2.34l-1.41-2.341l-7.502-12.663l-7.037-12.664l-1.395-2.341l1.395-2.347l7.037-12.655l0,0
	l7.502-12.665l1.41-2.348h2.34h15.004l0,0h14.522h2.821L81.72,35.795z M81.254,53.141l-6.092-10.315H63.445l0,0H51.247
	l-5.611,10.315h-0.481l-5.626,10.322l6.108,10.316l5.611,10.315h12.198l0,0h11.717l6.092-10.315l0,0l6.093-10.316L81.254,53.141z"/>
</svg>
